<svg xmlns="http://www.w3.org/2000/svg" viewBox="0 0 24 24">
  <rect width="24" height="24" rx="5" fill="#FFD700" />
  
  <path fill="#0F172A" fill-rule="evenodd" clip-rule="evenodd" d="M9 4.5a.75.75 0 01.721.544l.813 2.846a3.75 3.75 0 002.576 2.576l2.846.813a.75.75 0 010 1.442l-2.846.813a3.75 3.75 0 00-2.576 2.576l-.813 2.846a.75.75 0 01-1.442 0l-.813-2.846a3.75 3.75 0 00-2.576-2.576l-2.846-.813a.75.75 0 010-1.442l2.846-.813a3.75 3.75 0 002.576-2.576l.813-2.846A.75.75 0 019 4.5zM6.994 6.994a1.5 1.5 0 01-2.121 0l-.88-.88a1.5 1.5 0 012.122-2.121l.879.88a1.5 1.5 0 010 2.12zm12.728 9.9a1.5 1.5 0 010 2.12l-.88.88a1.5 1.5 0 01-2.122-2.12l.88-.88a1.5 1.5 0 012.122 0z" />
</svg>